<?xml version="1.0" encoding="utf-8"?>
<!-- Generator: Adobe Illustrator 22.1.0, SVG Export Plug-In . SVG Version: 6.00 Build 0)  -->
<svg version="1.1" id="レイヤー_1" xmlns="http://www.w3.org/2000/svg" xmlns:xlink="http://www.w3.org/1999/xlink" x="0px"
	 y="0px" viewBox="0 0 110 110" style="enable-background:new 0 0 110 110;" xml:space="preserve">
<style type="text/css">
	.st0{fill:#14BAA8;}
	.st1{fill:#76CEBF;}
	.st2{fill:#F0F1F1;}
	.st3{fill:#FFFFFF;}
	.st4{fill:#1FAA93;}
</style>
<g id="Artboard">
</g>
<g id="Multicolor">
	<circle class="st0" cx="55" cy="55" r="55"/>
	<g>
		<path class="st1" d="M39,71c0,2.2,1.8,4,4,4h24l12,12V75h4c2.2,0,4-1.8,4-4V39c0-2.2-1.8-4-4-4H43c-2.2,0-4,1.8-4,4V71z"/>
		<path class="st2" d="M71,63c0,2.2-1.8,4-4,4H43L31,79V67h-4c-2.2,0-4-1.8-4-4V31c0-2.2,1.8-4,4-4h40c2.2,0,4,1.8,4,4V63z"/>
		<path class="st3" d="M70.3,28.8C69.6,27.7,68.4,27,67,27H27c-2.2,0-4,1.8-4,4v32c0,2.2,1.8,4,4,4h4v1.1L70.3,28.8z"/>
		<circle class="st4" cx="35" cy="47" r="4"/>
		<circle class="st4" cx="47" cy="47" r="4"/>
		<circle class="st4" cx="59" cy="47" r="4"/>
	</g>
</g>
</svg>
