<?xml version="1.0" encoding="utf-8"?>
<!-- Generator: Adobe Illustrator 22.1.0, SVG Export Plug-In . SVG Version: 6.00 Build 0)  -->
<svg version="1.1" id="レイヤー_1" xmlns="http://www.w3.org/2000/svg" xmlns:xlink="http://www.w3.org/1999/xlink" x="0px"
	 y="0px" viewBox="0 0 110 110" style="enable-background:new 0 0 110 110;" xml:space="preserve">
<style type="text/css">
	.st0{fill:#14BAA8;}
	.st1{fill:#9EDCF2;}
	.st2{clip-path:url(#SVGID_2_);fill:#7DBCE7;}
	.st3{fill:#010101;}
	.st4{fill:#F5CCB3;}
	.st5{fill:#FFFFFF;}
	.st6{fill:#AF5C51;}
	.st7{fill:#C4E5D9;}
</style>
<g id="Artboard">
</g>
<g id="Multicolor">
	<circle class="st0" cx="55" cy="55" r="55"/>
	<g>
		<path class="st1" d="M77.6,82.7c0,4.3-10,7.8-22.3,7.8s-22.3-3.5-22.3-7.8c0-4.3,10-7.8,22.3-7.8S77.6,78.4,77.6,82.7z"/>
		<g>
			<defs>
				<path id="SVGID_1_" d="M45.7,96.6c0.5,2.3,1.7,3.7,2.9,4.5h12.7c1.5-1.1,3.1-3,3.1-6.7v-9.6c0,0,0.2-2.4,2.4-3.2
					c0,0,1.3-0.9-0.1-1.4c0,0-6-0.5-6,4.5v7.3c0,0,0.2,2.7-1.2,3.8v-9c0,0,0.1-2.9,1.6-4c0,0,1-1.8-1.2-1.3c0,0-4.1,0.6-4.3,5.4
					l-0.1,9.3h-1l-0.1-9.3c-0.2-4.8-4.3-5.4-4.3-5.4C48,81,49,82.7,49,82.7c1.5,1.1,1.6,4,1.6,4v9.1c-1.4-1-1.2-3.9-1.2-3.9v-7.3
					c0-5-6-4.5-6-4.5c-1.4,0.5-0.1,1.4-0.1,1.4c2.2,0.8,2.4,3.2,2.4,3.2v6.7L45.7,96.6L45.7,96.6z"/>
			</defs>
			<clipPath id="SVGID_2_">
				<use xlink:href="#SVGID_1_"  style="overflow:visible;"/>
			</clipPath>
			<path class="st2" d="M77.6,82.7c0,4.3-10,7.8-22.3,7.8s-22.3-3.5-22.3-7.8c0-4.3,10-7.8,22.3-7.8S77.6,78.4,77.6,82.7z"/>
		</g>
		<path class="st1" d="M29.9,59.8L29.2,62c0,0-0.2,0.8,0.6,1c0.8,0,0.7-0.8,0.7-1L29.9,59.8L29.9,59.8z"/>
		<path class="st3" d="M94.6,50.4l0.1-0.3c-6.5-1.3-13.2-1.3-17.3-1.1c0.6-2.4,0.9-5.2,0.9-8.2c0-4.4-1.7-8-4.3-10.6
			c0.5-1.5,1.1-4.9-0.6-9.2c0,0-3-1-9.9,3.7c-2.7-0.7-5.6-1-8.4-1c-3.2,0-6.3,0.4-9.3,1.2c-7.1-4.9-10.2-3.9-10.2-3.9
			c-2,5.1-0.8,8.9-0.4,9.8c-2.4,2.6-3.9,5.9-3.9,10c0,3.1,0.3,5.8,1.2,8.2c-4.1-0.2-10.5-0.1-16.8,1.2l0.1,0.3
			c6.3-1.3,12.8-1.3,16.9-1.1c0.2,0.5,0.4,1,0.6,1.5c-4,0.1-10.9,0.6-17.4,2.5l0.1,0.3c6.6-1.9,13.5-2.4,17.5-2.5
			c2.4,4.5,7.1,7.4,15.5,8.3c-1.2,0.8-2.4,2.2-2.9,4.5c-1.6,0.8-6.8,2.7-9.9-2.6c0,0-1.7-3.2-5-3.4c0,0-3.2-0.1-0.2,2
			c0,0,2.1,1,3.6,4.8c0,0,1.9,6.5,11.3,4.4v6.7c0,0-0.2,2.4-2.4,3.2c0,0-1.3,0.9,0.1,1.4c0,0,6,0.5,6-4.5v-7.3c0,0-0.2-2.9,1.2-3.9
			v12c0,0-0.1,2.9-1.6,4c0,0-1,1.8,1.2,1.3c0,0,4.1-0.6,4.3-5.4l0.1-12.2h1l0.1,12.2c0.2,4.8,4.3,5.4,4.3,5.4
			c2.2,0.5,1.2-1.3,1.2-1.3c-1.5-1.1-1.6-4-1.6-4V64.6c1.4,1.1,1.2,3.8,1.2,3.8v7.3c0,5,6,4.5,6,4.5c1.4-0.5,0.1-1.4,0.1-1.4
			c-2.2-0.8-2.4-3.2-2.4-3.2V66c0-3.7-1.6-5.7-3.1-6.7c9-0.9,13.3-3.8,15.3-8.3c3.9,0.1,11,0.6,17.8,2.5l0.1-0.3
			c-6.7-1.9-13.7-2.4-17.7-2.5c0.2-0.5,0.3-0.9,0.5-1.4C81.3,49.1,88,49.1,94.6,50.4L94.6,50.4z"/>
		<path class="st4" d="M69.4,40.5c1.9,1.8,3.1,3.9,3.1,6.1c0,10.6-7.9,10.9-17.7,10.9s-17.7-1.5-17.7-10.9c0-2.3,1.1-4.4,3-6.1
			c3.2-2.9,8.6-1.4,14.7-1.4S66.2,37.6,69.4,40.5L69.4,40.5z"/>
		<path class="st5" d="M48.9,47.2c0,2.9-1.6,5.3-3.7,5.3s-3.7-2.4-3.7-5.3c0-2.9,1.6-5.3,3.7-5.3C47.3,41.9,48.9,44.3,48.9,47.2z"/>
		<path class="st6" d="M47.7,47.3c0,1.9-1.1,3.5-2.4,3.5c-1.4,0-2.4-1.6-2.4-3.5s1.1-3.5,2.4-3.5C46.6,43.7,47.7,45.3,47.7,47.3z"/>
		<path class="st5" d="M68.7,47.2c0,2.9-1.6,5.3-3.7,5.3s-3.7-2.4-3.7-5.3c0-2.9,1.6-5.3,3.7-5.3C67,41.9,68.7,44.3,68.7,47.2z"/>
		<path class="st6" d="M67.5,47.3c0,1.9-1.1,3.5-2.4,3.5c-1.4,0-2.4-1.6-2.4-3.5s1.1-3.5,2.4-3.5C66.4,43.7,67.5,45.3,67.5,47.3z
			 M55.8,51.9c0,0.5-0.4,0.9-0.9,0.9c-0.5,0-0.9-0.4-0.9-0.9s0.4-0.9,0.9-0.9C55.3,51,55.8,51.4,55.8,51.9z M52.7,54.2
			c-0.1-0.2,0-0.3,0.2-0.4c0.2-0.1,0.3,0,0.4,0.2c0.2,0.7,0.9,1.1,1.6,1.1s1.3-0.5,1.6-1.1c0.1-0.2,0.2-0.2,0.4-0.2
			c0.2,0.1,0.2,0.2,0.2,0.4c-0.3,0.9-1.2,1.5-2.1,1.5S53,55.1,52.7,54.2L52.7,54.2z"/>
		<path class="st7" d="M32.3,58.4c0,0.2-0.3,0.4-0.6,0.4c-0.3,0-0.6-0.2-0.6-0.4s0.3-0.4,0.6-0.4C32,58,32.3,58.2,32.3,58.4z
			 M34,59.4c0,0.2-0.3,0.4-0.6,0.4c-0.3,0-0.6-0.2-0.6-0.4S33,59,33.4,59S34,59.2,34,59.4z M35.1,60.7c0,0.2-0.3,0.4-0.6,0.4
			c-0.3,0-0.6-0.2-0.6-0.4c0-0.2,0.3-0.4,0.6-0.4C34.9,60.3,35.1,60.5,35.1,60.7z M36.1,62.2c0,0.2-0.3,0.4-0.6,0.4
			c-0.3,0-0.6-0.2-0.6-0.4c0-0.2,0.3-0.4,0.6-0.4C35.8,61.8,36.1,62,36.1,62.2z M37.2,63.6c0,0.2-0.3,0.4-0.6,0.4
			c-0.3,0-0.6-0.2-0.6-0.4c0-0.2,0.3-0.4,0.6-0.4S37.2,63.3,37.2,63.6z M38.7,64.8c0,0.2-0.3,0.4-0.6,0.4c-0.3,0-0.6-0.2-0.6-0.4
			c0-0.2,0.3-0.4,0.6-0.4C38.4,64.3,38.7,64.5,38.7,64.8z M40.8,65.6c0,0.2-0.3,0.4-0.6,0.4c-0.3,0-0.6-0.2-0.6-0.4s0.3-0.4,0.6-0.4
			S40.8,65.3,40.8,65.6z M42.8,65.6c0,0.2-0.3,0.4-0.6,0.4c-0.3,0-0.6-0.2-0.6-0.4s0.3-0.4,0.6-0.4S42.8,65.3,42.8,65.6z M44.9,65.2
			c0,0.2-0.3,0.4-0.6,0.4c-0.3,0-0.6-0.2-0.6-0.4c0-0.2,0.3-0.4,0.6-0.4C44.6,64.8,44.9,65,44.9,65.2z"/>
	</g>
</g>
</svg>
