<?xml version="1.0" encoding="utf-8"?>
<!-- Generator: Adobe Illustrator 22.1.0, SVG Export Plug-In . SVG Version: 6.00 Build 0)  -->
<svg version="1.1" id="レイヤー_1" xmlns="http://www.w3.org/2000/svg" xmlns:xlink="http://www.w3.org/1999/xlink" x="0px"
	 y="0px" viewBox="0 0 110 110" style="enable-background:new 0 0 110 110;" xml:space="preserve">
<style type="text/css">
	.st0{fill:#14BAA8;}
	.st1{fill:#FFFFFF;}
	.st2{fill:#3E3E3F;}
	.st3{fill:#0D9681;}
	.st4{fill:#CFD3D4;}
	.st5{fill:#17B198;}
	.st6{fill:#F0F1F1;}
</style>
<g id="Artboard">
</g>
<g id="Multicolor">
	<circle class="st0" cx="55" cy="55" r="55"/>
	<g>
		<circle class="st1" cx="50" cy="29" r="6"/>
		<path class="st2" d="M29.4,54.3l19.6-27c0.3-0.4,1-0.5,1.4-0.2L74.2,47l2.6-0.4L51.6,25.6c-1.3-1-3.2-0.8-4.2,0.5L26.6,54.8
			L29.4,54.3z"/>
		<rect x="28.9" y="54.4" transform="matrix(0.9867 -0.1626 0.1626 0.9867 -10.0609 9.8109)" class="st3" width="52" height="24"/>
		<path class="st1" d="M78.6,50.3L82.5,74l-51.3,8.5l-3.9-23.7L78.6,50.3 M80.3,46c-0.3,0-55.3,9.1-55.6,9.1
			c-1.1,0.2-1.8,1.2-1.6,2.3l4.6,27.6c0.2,1,1,1.7,2,1.7c0.3,0,55.3-9.1,55.6-9.1c1.1-0.2,1.8-1.2,1.6-2.3l-4.6-27.6
			C82.1,46.7,81.2,46,80.3,46L80.3,46z"/>
		<circle class="st4" cx="50" cy="29" r="2"/>
		<polygon class="st5" points="31.2,82.4 31.3,82.4 60.4,53.3 27.3,58.8 		"/>
		<path class="st6" d="M32.1,70.5L32.1,70.5c-0.5-3.2,1.5-6.2,5-6.7c3.4-0.6,6.3,1.6,6.8,4.7l0,0c0.4,3.3-1.7,6.3-5,6.7
			C35.5,75.7,32.7,73.7,32.1,70.5z M41.4,69L41.4,69c-0.3-1.9-2-3.3-3.9-3s-3.1,2.1-2.8,4l0,0c0.3,1.9,2,3.3,3.9,2.9
			C40.6,72.7,41.7,70.9,41.4,69z"/>
		<path class="st1" d="M43.9,68.6L43.9,68.6c-0.5-3.2-3.4-5.3-6.8-4.8c-3.4,0.6-5.5,3.6-5,6.7l0,0c0.5,3,3.1,5,6.2,4.8l5.6-5.6
			C44,69.4,44,69,43.9,68.6z M38.6,73c-2,0.3-3.6-1-3.9-2.9l0,0c-0.3-1.9,0.8-3.7,2.8-4s3.6,1,3.9,2.9l0,0
			C41.7,70.9,40.6,72.7,38.6,73z"/>
		<path class="st6" d="M45.4,63.9c-0.1-0.7,0.3-1.3,1-1.4l3.3-0.5c2.6-0.4,4.5,0.9,4.9,3.1l0,0c0.4,2.6-1.4,4.2-3.8,4.6L48.9,70
			l0.4,2.2c0.1,0.7-0.3,1.3-1,1.4s-1.3-0.3-1.4-1L45.4,63.9z M50.4,67.5c1.2-0.2,1.8-1,1.7-2l0,0c-0.2-1.1-1-1.6-2.3-1.4L48,64.5
			l0.6,3.4L50.4,67.5z"/>
		<path class="st1" d="M49.7,61.9l-3.3,0.5c-0.7,0.1-1.1,0.7-1,1.4l0.6,3.8l2.1-2.1L48,64.5l1.5-0.3l2.2-2.2
			C51.1,61.8,50.4,61.8,49.7,61.9z"/>
		<path class="st6" d="M57.3,70.8l-1.4-8.6c-0.1-0.7,0.3-1.3,1-1.4l6.1-1c0.6-0.1,1.2,0.3,1.3,0.9c0.1,0.6-0.3,1.2-0.9,1.3l-4.9,0.8
			l0.4,2.2l4.2-0.7c0.6-0.1,1.2,0.3,1.3,0.9s-0.3,1.2-0.9,1.3l-4.2,0.7l0.4,2.3l5-0.8c0.6-0.1,1.2,0.3,1.3,0.9
			c0.1,0.6-0.3,1.2-0.9,1.3l-6.2,1C58.1,71.9,57.5,71.5,57.3,70.8z"/>
		<path class="st6" d="M66.5,60.3c-0.1-0.7,0.3-1.3,1-1.4l0.3,0c0.6-0.1,1,0.1,1.4,0.5l5.7,5.4l-0.9-5.7c-0.1-0.7,0.3-1.3,1-1.4
			s1.3,0.3,1.4,1l1.5,8.8c0.1,0.7-0.3,1.3-1,1.4l-0.1,0c-0.6,0.1-1-0.1-1.4-0.5l-5.9-5.6l1,5.9c0.1,0.7-0.3,1.3-1,1.4
			s-1.3-0.3-1.4-1L66.5,60.3z"/>
	</g>
</g>
</svg>
